<?xml version="1.0" encoding="utf-8"?>
<!-- Generator: Adobe Illustrator 21.0.0, SVG Export Plug-In . SVG Version: 6.00 Build 0)  -->
<svg version="1.1" id="Calque_1" xmlns="http://www.w3.org/2000/svg" xmlns:xlink="http://www.w3.org/1999/xlink" x="0px" y="0px"
	 viewBox="0 0 20 20" style="enable-background:new 0 0 20 20;" xml:space="preserve">
<style type="text/css">
	.st0{fill:#FFFFFF;}
	.st1{fill:#D08C14;}
	.st2{fill:none;}
	.st3{fill:#DEB74B;}
	.st4{fill:#DCA53A;}
	.st5{fill:#EDA012;}
	.st6{fill:#FACE54;}
	.st7{fill:#F8BA42;}
	.st8{fill:#3C63AB;}
</style>
<g>
	<g>
		<path class="st0" d="M13.6,5c-0.4,0-0.7,0.2-0.9,0.5H6.3C6.1,5.5,5.8,5.7,5.7,6c0,0.1-0.1,0.2-0.1,0.2c-0.2,0-0.4,0.2-0.5,0.4
			c0,0.1-0.1,0.2-0.1,0.3v5.6c0,0.2,0.1,0.3,0.2,0.5c0.1,0.2,0.3,0.3,0.6,0.3h7.1c0.2,0,0.4-0.1,0.6-0.3c0.1-0.1,0.2-0.3,0.2-0.4
			c0.2,0,0.3-0.1,0.4-0.2c0.1-0.1,0.2-0.3,0.2-0.5V6.9c0.3-0.2,0.4-0.5,0.4-0.8C14.6,5.5,14.1,5,13.6,5z"/>
		<g>
			<path class="st1" d="M12.9,6.4H5.8c-0.2,0-0.4,0.1-0.5,0.3c1.1,1.1,3.5,3.4,4,3.4c0.6,0,3-2.3,4-3.4C13.3,6.5,13.1,6.4,12.9,6.4z
				"/>
			<path class="st2" d="M9.8,9.9L9.3,9.4L8.8,9.9c0.2,0.1,0.4,0.2,0.5,0.2C9.4,10.1,9.6,10,9.8,9.9z"/>
			<path class="st3" d="M5.3,6.7c0,0.1,0,0.1,0,0.2v5.6c0,0.1,0,0.2,0.1,0.3l3.5-3C7.9,9.3,6.2,7.6,5.3,6.7z"/>
			<path class="st3" d="M13.4,12.5V6.9c0-0.1,0-0.1,0-0.2c-0.9,0.9-2.6,2.5-3.5,3.2l3.5,3C13.4,12.7,13.4,12.6,13.4,12.5z"/>
			<path class="st4" d="M9.8,9.9c-0.2,0.1-0.4,0.2-0.5,0.2c-0.1,0-0.3-0.1-0.5-0.2l-3.5,3C5.5,13,5.6,13,5.8,13h7.1
				c0.2,0,0.3-0.1,0.4-0.2L9.8,9.9z"/>
		</g>
		<g>
			<path class="st5" d="M13.5,5.7H6.3c-0.2,0-0.4,0.1-0.5,0.3c1.1,1.1,3.5,3.4,4,3.4c0.6,0,3-2.3,4-3.4C13.9,5.9,13.7,5.7,13.5,5.7z
				"/>
			<path class="st2" d="M10.4,9.2L9.9,8.8L9.4,9.2c0.2,0.1,0.4,0.2,0.5,0.2C10,9.4,10.2,9.3,10.4,9.2z"/>
			<path class="st6" d="M5.9,6.1c0,0.1,0,0.1,0,0.2v5.6c0,0.1,0,0.2,0.1,0.3l3.5-3C8.5,8.6,6.7,6.9,5.9,6.1z"/>
			<path class="st6" d="M14,11.8V6.3c0-0.1,0-0.1,0-0.2c-0.9,0.9-2.6,2.5-3.5,3.2l3.5,3C13.9,12.1,14,12,14,11.8z"/>
			<path class="st7" d="M10.4,9.2C10.2,9.3,10,9.4,9.9,9.4c-0.1,0-0.3-0.1-0.5-0.2l-3.5,3c0.1,0.1,0.2,0.2,0.4,0.2h7.1
				c0.2,0,0.3-0.1,0.4-0.2L10.4,9.2z"/>
		</g>
		<g>
			<path class="st5" d="M13.5,5.7H6.3c-0.2,0-0.4,0.1-0.5,0.3c1.1,1.1,3.5,3.4,4,3.4c0.6,0,3-2.3,4-3.4C13.9,5.9,13.7,5.7,13.5,5.7z
				"/>
			<path class="st2" d="M10.4,9.2L9.9,8.8L9.4,9.2c0.2,0.1,0.4,0.2,0.5,0.2C10,9.4,10.2,9.3,10.4,9.2z"/>
			<path class="st6" d="M5.9,6.1c0,0.1,0,0.1,0,0.2v5.6c0,0.1,0,0.2,0.1,0.3l3.5-3C8.5,8.6,6.7,6.9,5.9,6.1z"/>
			<path class="st6" d="M14,11.8V6.3c0-0.1,0-0.1,0-0.2c-0.9,0.9-2.6,2.5-3.5,3.2l3.5,3C13.9,12.1,14,12,14,11.8z"/>
			<path class="st2" d="M10.4,9.2C10.2,9.3,10,9.4,9.9,9.4c-0.1,0-0.3-0.1-0.5-0.2l-3.5,3c0.1,0.1,0.2,0.2,0.4,0.2h7.1
				c0.2,0,0.3-0.1,0.4-0.2L10.4,9.2z"/>
		</g>
		<circle class="st8" cx="13.6" cy="6.1" r="0.8"/>
		<g>
			<path class="st0" d="M13.3,6.6l-0.2-0.2c0.1-0.1,0.1-0.2,0.2-0.2c0,0,0.1,0,0.1-0.1c0,0-0.1,0-0.2-0.1C13.1,6,13,6,13,6l0.1-0.3
				c0.1,0.1,0.3,0.1,0.4,0.2c0-0.2,0-0.3,0-0.4h0.3c0,0.1,0,0.2,0,0.4c0,0,0.1,0,0.1-0.1c0.1,0,0.2-0.1,0.3-0.1L14.1,6
				c-0.1,0-0.2,0.1-0.4,0.1l0.2,0.2c0,0,0.1,0.1,0.1,0.1l-0.2,0.2l-0.2-0.3C13.5,6.3,13.4,6.5,13.3,6.6z"/>
		</g>
	</g>
	<rect x="8.2" y="-7" class="st2" width="3.1" height="29"/>
</g>
</svg>
